<?xml version="1.0" standalone="no"?>
<!DOCTYPE svg PUBLIC "-//W3C//DTD SVG 20010904//EN"
 "http://www.w3.org/TR/2001/REC-SVG-20010904/DTD/svg10.dtd">
<svg version="1.0" xmlns="http://www.w3.org/2000/svg"
 width="99.000000pt" height="82.000000pt" viewBox="0 0 99.000000 82.000000"
 preserveAspectRatio="xMidYMid meet">

<g transform="translate(0.000000,82.000000) scale(0.100000,-0.100000)"
fill="#000000" stroke="none">
<path d="M0 485 c0 -291 2 -335 15 -335 13 0 15 23 15 150 0 93 4 150 10 150
6 0 10 -57 10 -150 0 -143 1 -150 20 -150 20 0 20 7 20 335 l0 335 -45 0 -45
0 0 -335z m50 150 c0 -97 -4 -155 -10 -155 -6 0 -10 58 -10 155 0 97 4 155 10
155 6 0 10 -58 10 -155z"/>
<path d="M110 485 c0 -328 0 -335 20 -335 19 0 20 7 20 150 0 93 4 150 10 150
6 0 10 -50 10 -130 0 -124 1 -130 20 -130 20 0 20 5 18 147 l-3 148 -24 0
c-13 0 -26 6 -28 13 -3 8 6 12 26 12 l31 0 0 155 0 155 -50 0 -50 0 0 -335z
m60 175 c0 -80 -4 -130 -10 -130 -6 0 -10 48 -10 123 0 109 3 137 17 137 2 0
3 -58 3 -130z"/>
<path d="M228 653 c-2 -93 -2 -234 0 -315 l3 -148 44 0 45 0 0 246 c0 228 -1
245 -17 242 -16 -3 -18 -24 -23 -233 -3 -127 -8 -223 -13 -215 -4 9 -6 117 -5
240 l3 225 28 3 c19 2 27 9 27 23 0 14 -7 19 -30 19 -28 0 -30 2 -30 40 0 28
-4 40 -15 40 -12 0 -15 -29 -17 -167z"/>
<path d="M340 505 l0 -315 50 0 50 0 -2 242 c-3 222 -4 243 -20 246 -17 3 -18
-13 -18 -222 0 -139 -4 -227 -10 -231 -7 -4 -10 77 -10 234 l0 241 31 0 c24 0
30 4 27 18 -2 10 -14 18 -31 20 -24 3 -27 7 -27 43 0 32 -3 39 -20 39 -20 0
-20 -7 -20 -315z"/>
<path d="M460 506 c0 -309 0 -316 20 -316 19 0 20 7 20 130 0 80 4 130 10 130
6 0 10 -50 10 -130 0 -109 2 -130 15 -130 13 0 15 23 15 144 l0 145 -27 3
c-39 4 -35 22 5 26 l33 3 -3 152 -3 152 -47 3 -48 3 0 -315z m60 148 c0 -76
-4 -124 -10 -124 -6 0 -10 50 -10 131 0 84 4 128 10 124 6 -4 10 -58 10 -131z"/>
<path d="M580 506 c0 -310 0 -316 20 -316 20 0 20 5 18 312 -3 289 -4 313 -20
316 -17 3 -18 -17 -18 -312z"/>
<path d="M640 505 l0 -315 45 0 45 0 0 151 c0 138 -1 150 -17 147 -16 -3 -19
-20 -23 -138 -3 -74 -7 -130 -8 -125 -7 27 -2 545 5 548 4 1 9 -58 11 -130 2
-109 5 -133 17 -133 13 0 15 25 15 155 l0 155 -45 0 -45 0 0 -315z"/>
<path d="M757 813 c-4 -3 -7 -145 -7 -315 0 -301 0 -308 20 -308 19 0 20 7 20
124 0 73 4 127 10 131 6 4 10 -47 10 -144 0 -144 1 -151 20 -151 19 0 20 7 20
170 l0 170 -31 0 c-17 0 -28 4 -24 10 3 6 17 10 31 10 l24 0 0 156 c0 143 -1
155 -17 152 -16 -3 -18 -19 -21 -136 -4 -177 -22 -175 -22 3 0 106 -3 135 -13
135 -8 0 -17 -3 -20 -7z"/>
<path d="M877 813 c-4 -3 -7 -82 -7 -175 l0 -168 30 0 30 0 0 -145 c0 -90 -4
-145 -10 -145 -6 0 -10 52 -10 136 0 124 -2 135 -17 132 -16 -3 -18 -20 -21
-151 l-3 -147 51 0 50 0 0 190 0 190 -30 0 -30 0 0 119 c0 69 4 122 10 126 6
4 10 -35 10 -109 0 -109 1 -116 20 -116 19 0 20 7 20 135 l0 135 -43 0 c-24 0
-47 -3 -50 -7z"/>
<path d="M15 66 c-8 -19 -15 -43 -15 -52 0 -15 2 -15 21 2 20 18 21 18 35 0
21 -30 28 -12 12 35 -18 55 -35 60 -53 15z m30 -6 c3 -5 1 -10 -4 -10 -6 0
-11 5 -11 10 0 6 2 10 4 10 3 0 8 -4 11 -10z"/>
<path d="M120 50 c0 -52 13 -67 24 -27 l7 22 16 -23 c8 -12 19 -22 22 -22 6 0
7 64 2 93 0 4 -17 7 -36 7 l-35 0 0 -50z m58 18 c-6 -17 -30 -17 -35 0 -3 7 4
12 17 12 13 0 20 -5 18 -12z"/>
<path d="M235 90 c-3 -5 1 -10 9 -10 12 0 16 -10 16 -40 0 -22 5 -40 10 -40 6
0 10 18 10 40 0 22 5 40 10 40 6 0 10 5 10 10 0 6 -13 10 -29 10 -17 0 -33 -4
-36 -10z"/>
<path d="M410 90 c0 -5 5 -10 10 -10 6 0 10 -18 10 -40 0 -22 5 -40 10 -40 6
0 10 18 10 40 0 29 4 40 15 40 8 0 15 5 15 10 0 6 -16 10 -35 10 -19 0 -35 -4
-35 -10z"/>
<path d="M517 94 c-10 -11 -9 -94 2 -94 5 0 12 10 15 23 l7 22 16 -22 c23 -34
29 -28 28 25 0 45 -1 47 -30 50 -17 2 -34 0 -38 -4z m51 -26 c-3 -7 -11 -13
-18 -13 -7 0 -15 6 -17 13 -3 7 4 12 17 12 13 0 20 -5 18 -12z"/>
<path d="M630 50 c0 -27 5 -50 10 -50 6 0 10 23 10 50 0 28 -4 50 -10 50 -5 0
-10 -22 -10 -50z"/>
<path d="M702 91 c-8 -5 -12 -23 -10 -47 3 -36 5 -39 37 -42 21 -2 31 0 26 7
-3 6 -15 11 -26 11 -14 0 -19 7 -19 30 0 25 4 30 25 30 14 0 25 5 25 10 0 12
-40 13 -58 1z"/>
<path d="M800 50 c0 -27 5 -50 10 -50 6 0 10 8 10 18 1 15 2 15 15 -2 19 -25
30 -15 15 13 -7 15 -8 27 0 40 12 24 13 31 2 31 -5 0 -14 -10 -20 -22 l-11
-23 0 23 c-2 46 -21 20 -21 -28z"/>
<path d="M914 85 c-9 -23 3 -45 26 -45 11 0 20 -4 20 -10 0 -5 -11 -10 -25
-10 -14 0 -25 -4 -25 -10 0 -11 39 -13 64 -4 28 11 19 44 -14 51 -40 7 -38 23
3 23 24 0 28 3 17 10 -23 15 -60 12 -66 -5z"/>
</g>
</svg>
